<?xml version="1.0" encoding="iso-8859-1"?>
<!-- Generator: Adobe Illustrator 19.0.0, SVG Export Plug-In . SVG Version: 6.00 Build 0)  -->
<svg version="1.1" id="Layer_1" xmlns="http://www.w3.org/2000/svg" xmlns:xlink="http://www.w3.org/1999/xlink" x="0px" y="0px"
	 viewBox="0 0 496.158 496.158" style="enable-background:new 0 0 496.158 496.158;" xml:space="preserve">
<path style="fill:#E5AA17;" d="M496.158,248.085c0-137.021-111.07-248.082-248.076-248.082C111.07,0.002,0,111.062,0,248.085
	c0,137.002,111.07,248.071,248.083,248.071C385.088,496.155,496.158,385.086,496.158,248.085z"/>
<g>
	<path style="fill:#FFFFFF;" d="M223.082,121.066h-60.006c-5.523,0-10,4.479-10,10v234.024c0,5.523,4.477,10,10,10h60.006
		c5.523,0,10-4.477,10-10V131.066C233.082,125.545,228.605,121.066,223.082,121.066z"/>
	<path style="fill:#FFFFFF;" d="M333.082,121.066h-60.006c-5.523,0-10,4.479-10,10v234.024c0,5.523,4.477,10,10,10h60.006
		c5.523,0,10-4.477,10-10V131.066C343.082,125.545,338.605,121.066,333.082,121.066z"/>
</g>
<g>
</g>
<g>
</g>
<g>
</g>
<g>
</g>
<g>
</g>
<g>
</g>
<g>
</g>
<g>
</g>
<g>
</g>
<g>
</g>
<g>
</g>
<g>
</g>
<g>
</g>
<g>
</g>
<g>
</g>
</svg>
